<svg xmlns="http://www.w3.org/2000/svg" xmlns:xlink="http://www.w3.org/1999/xlink" version="1.1" id="Capa_1" x="0px" y="0px" width="67.085px" height="67.085px" viewBox="0 0 67.085 67.085" style="enable-background:new 0 0 67.085 67.085;fill: #b066ad;" xml:space="preserve">
<g>
	<g>
		<path d="M30.867,17c-0.455,0.457-0.455,1.197,0,1.652c0.229,0.229,0.528,0.341,0.827,0.341s0.599-0.114,0.827-0.341L41.68,9.5    l-9.159-9.159c-0.455-0.455-1.195-0.455-1.651,0c-0.455,0.453-0.455,1.197,0,1.652l6.22,6.22H21.622    C11.095,8.216,2.532,19.218,2.532,32.743v23.83c0,0.646,0.523,1.168,1.168,1.168s1.168-0.521,1.168-1.168v-23.83    c0-12.236,7.516-22.191,16.754-22.191h15.705L30.867,17z"/>
		<path d="M63.384,9.347c-0.646,0-1.168,0.523-1.168,1.168v23.832c0,12.236-7.516,22.19-16.754,22.19H29.757l6.457-6.451    c0.456-0.456,0.456-1.194,0-1.651c-0.456-0.456-1.195-0.456-1.651,0l-9.158,9.152l9.158,9.158c0.229,0.23,0.528,0.34,0.826,0.34    c0.301,0,0.6-0.114,0.828-0.34c0.456-0.454,0.456-1.195,0-1.651l-6.221-6.221h15.468c10.527,0,19.09-11.002,19.09-24.526V10.515    C64.552,9.868,64.031,9.347,63.384,9.347z"/>
	</g>
</g>
</svg>